<?xml version="1.0" standalone="no"?>
<!DOCTYPE svg PUBLIC "-//W3C//DTD SVG 20010904//EN"
 "http://www.w3.org/TR/2001/REC-SVG-20010904/DTD/svg10.dtd">
<svg version="1.0" xmlns="http://www.w3.org/2000/svg"
 width="405.000000pt" height="405.000000pt" viewBox="0 0 405.000000 405.000000"
 preserveAspectRatio="xMidYMid meet">

<g transform="translate(0.000000,405.000000) scale(0.100000,-0.100000)"
fill="#000000" stroke="none">
<path d="M1840 3309 c-301 -34 -607 -185 -820 -405 -256 -264 -399 -619 -400
-991 l0 -83 1354 0 1354 0 6 43 c9 58 -11 275 -34 374 -103 439 -401 791 -816
964 -123 52 -256 86 -383 99 -115 11 -153 11 -261 -1z m324 -134 c95 -17 273
-78 380 -132 207 -104 402 -300 523 -525 42 -78 96 -222 108 -288 l6 -35 -265
3 -266 3 0 159 c0 88 3 160 8 160 4 0 16 -7 26 -15 11 -8 28 -15 38 -15 15 0
18 9 18 55 l0 54 -61 36 c-33 19 -64 35 -70 35 -5 0 -9 38 -9 85 0 100 -5 105
-104 105 -55 0 -67 -3 -80 -21 -8 -12 -12 -28 -9 -35 3 -8 3 -14 -1 -14 -3 0
-74 37 -158 81 -283 151 -262 142 -304 124 -21 -8 -92 -45 -158 -82 -318 -174
-405 -221 -448 -244 -26 -13 -65 -35 -85 -49 -35 -24 -38 -30 -41 -78 -3 -57
4 -62 48 -37 14 8 28 14 33 15 4 0 7 -73 7 -162 l0 -163 -260 0 c-240 0 -260
1 -260 17 0 34 63 214 100 288 113 223 320 434 531 541 138 69 315 127 434
142 77 10 241 6 319 -8z m-88 -293 c49 -27 144 -77 212 -113 67 -35 122 -69
122 -76 0 -7 -4 -13 -10 -13 -5 0 -102 46 -215 102 l-206 103 -122 -63 c-67
-34 -205 -105 -307 -157 -102 -52 -186 -95 -187 -95 0 0 1 8 4 18 2 10 51 44
111 77 236 131 488 265 498 265 6 0 51 -22 100 -48z m193 -219 l295 -148 -2
-295 -1 -295 -200 -3 -200 -2 -3 145 c-4 192 -1 189 -172 193 -119 3 -124 3
-152 -21 l-29 -25 -3 -146 -3 -146 -210 0 -209 0 4 23 c3 12 5 144 5 294 l1
271 278 142 c152 78 281 146 287 151 5 5 11 9 15 9 3 0 137 -66 299 -147z
m245 131 c13 -5 16 -23 16 -95 l0 -90 -28 15 c-25 13 -28 19 -25 63 1 26 2 63
2 81 1 32 7 37 35 26z m-430 -610 c13 -12 16 -40 16 -140 0 -117 -1 -124 -20
-124 -19 0 -20 7 -20 120 l0 120 -80 0 -80 0 0 -120 c0 -113 -1 -120 -20 -120
-19 0 -20 7 -20 128 0 86 4 132 12 140 19 19 193 16 212 -4z m-784 -94 l0 -29
-270 -3 -270 -3 0 33 0 32 270 0 270 0 0 -30z m1900 -2 l0 -33 -275 3 -275 3
0 29 0 30 275 0 275 0 0 -32z m-1900 -138 l0 -30 -275 0 -275 0 0 30 0 30 275
0 275 0 0 -30z m1910 0 l0 -30 -280 0 -280 0 0 30 0 30 280 0 280 0 0 -30z"/>
<path d="M1935 2730 c-89 -20 -152 -88 -170 -181 -15 -78 43 -186 118 -220
139 -62 294 24 305 170 6 77 -9 118 -59 169 -53 53 -129 77 -194 62z m98 -74
c147 -63 117 -269 -41 -283 -91 -8 -162 57 -162 147 0 108 105 178 203 136z"/>
<path d="M1997 2619 c-21 -12 -23 -41 -3 -33 13 5 30 33 24 40 -2 1 -11 -2
-21 -7z"/>
<path d="M1912 2552 c-14 -21 -14 -29 -1 -66 14 -40 15 -41 65 -44 63 -4 85
14 64 53 -10 19 -11 31 -2 50 6 14 8 26 4 26 -4 1 -31 2 -60 4 -47 2 -56 -1
-70 -23z"/>
<path d="M1485 2262 c3 -11 -3 -29 -15 -45 -17 -21 -20 -40 -20 -117 0 -134
-5 -130 150 -130 104 0 132 3 144 16 22 22 23 206 1 228 -8 8 -15 26 -15 40
l0 26 -126 0 c-117 0 -125 -1 -119 -18z m225 -138 l0 -94 -100 0 -100 0 0 95
0 94 93 3 c50 2 95 2 100 0 4 -2 7 -46 7 -98z"/>
<path d="M1550 2165 c0 -22 4 -25 35 -25 31 0 35 3 35 25 0 22 -4 25 -35 25
-31 0 -35 -3 -35 -25z"/>
<path d="M1550 2090 c0 -28 3 -30 35 -30 32 0 35 2 35 30 0 28 -3 30 -35 30
-32 0 -35 -2 -35 -30z"/>
<path d="M2235 2262 c3 -11 -3 -29 -15 -45 -17 -21 -20 -40 -20 -117 0 -134
-5 -130 150 -130 164 0 160 -3 160 134 0 80 -3 106 -15 116 -8 7 -15 23 -15
36 0 24 0 24 -126 24 -117 0 -125 -1 -119 -18z m215 -134 l0 -98 -95 0 -95 0
0 98 0 97 95 0 95 0 0 -97z"/>
<path d="M2340 2165 c0 -22 4 -25 35 -25 31 0 35 3 35 25 0 22 -4 25 -35 25
-31 0 -35 -3 -35 -25z"/>
<path d="M2347 2113 c-4 -3 -7 -17 -7 -30 0 -20 5 -23 35 -23 32 0 35 2 35 30
0 26 -4 30 -28 30 -16 0 -32 -3 -35 -7z"/>
<path d="M626 1688 c13 -81 55 -213 100 -307 66 -141 147 -254 264 -372 206
-207 469 -345 750 -395 127 -23 355 -23 475 0 360 68 674 261 883 544 128 174
194 323 237 540 l7 32 -1361 0 -1361 0 6 -42z m1932 6 c31 -21 28 -57 -9 -99
-17 -19 -26 -35 -20 -35 12 0 6 -64 -10 -107 l-8 -23 -36 21 c-31 18 -39 20
-65 9 -34 -14 -55 -63 -44 -104 13 -55 83 -81 148 -56 33 12 37 4 24 -53 -9
-44 -12 -47 -51 -58 -53 -15 -133 0 -177 32 -67 50 -88 155 -49 237 27 55 96
102 151 102 27 0 46 8 70 29 31 28 32 30 15 48 -21 24 -21 32 0 55 20 22 32
23 61 2z m500 -72 c21 -28 13 -52 -33 -100 -35 -37 -47 -44 -54 -33 -6 10 -2
23 12 43 20 28 21 30 4 39 -22 13 -22 55 1 68 21 12 53 5 70 -17z m-1969 -94
c36 -59 68 -108 71 -108 3 0 35 49 71 108 l65 107 75 0 c71 0 74 -1 77 -24 2
-14 -3 -30 -10 -35 -8 -6 -20 -21 -26 -33 -16 -30 -15 -231 1 -263 16 -31 57
-38 80 -13 9 11 42 88 72 173 72 197 73 200 130 200 54 0 47 10 125 -201 45
-124 66 -168 89 -190 53 -48 36 -59 -89 -59 -93 0 -109 2 -115 18 -4 11 1 22
14 31 40 26 26 41 -39 41 -64 0 -72 -8 -40 -40 11 -11 17 -26 14 -35 -9 -23
-409 -23 -418 1 -4 9 5 25 22 41 24 22 27 33 31 106 2 45 -1 78 -5 74 -5 -5
-34 -54 -64 -110 -31 -55 -61 -102 -67 -104 -7 -3 -38 43 -70 101 -32 58 -62
106 -67 106 -4 0 -6 -34 -4 -75 3 -69 6 -78 32 -99 20 -15 27 -28 23 -39 -5
-14 -22 -17 -106 -17 -93 0 -100 1 -106 21 -6 16 0 27 21 44 l29 23 0 130 c0
121 -2 132 -22 154 -23 24 -30 58 -16 72 4 4 41 5 82 4 l75 -3 65 -107z m1099
35 c23 -6 24 -9 17 -62 -8 -66 -18 -80 -42 -59 -30 25 -53 29 -83 13 -50 -26
-50 -128 1 -155 23 -13 71 -13 103 0 23 9 26 7 26 -14 0 -65 -11 -86 -52 -97
-143 -38 -276 91 -237 230 29 105 158 174 267 144z m701 0 c22 -6 23 -10 18
-56 -4 -27 -8 -52 -10 -54 -3 -2 -21 6 -40 17 -20 12 -41 19 -47 15 -23 -14
-7 -34 39 -50 71 -23 101 -57 101 -113 0 -102 -68 -148 -203 -136 l-80 7 7 60
c3 33 8 62 11 65 2 3 21 -3 41 -13 50 -23 97 -25 102 -3 2 12 -12 22 -58 39
-78 28 -104 59 -97 117 5 48 28 78 72 98 32 14 105 18 144 7z m-219 -23 c0
-32 -21 -119 -30 -125 -19 -12 -56 98 -44 130 4 9 19 15 40 15 27 0 34 -4 34
-20z m-1130 -480 l0 -40 40 0 40 0 0 40 c0 36 3 40 25 40 l25 0 0 -105 0 -105
-25 0 c-22 0 -25 4 -25 40 l0 40 -40 0 -40 0 0 -40 c0 -36 -2 -40 -25 -40
l-25 0 0 105 0 105 25 0 c23 0 25 -4 25 -40z m333 29 c38 -19 57 -51 57 -97 0
-62 -40 -102 -103 -102 -112 0 -155 131 -65 194 26 19 80 21 111 5z m147 -58
c0 -67 14 -101 40 -101 26 0 40 34 40 101 0 67 1 69 25 69 25 0 25 -1 25 -80
0 -73 -3 -83 -25 -105 -18 -19 -35 -25 -65 -25 -30 0 -47 6 -65 25 -22 22 -25
32 -25 105 0 79 0 80 25 80 24 0 25 -2 25 -69z m304 63 c19 -7 21 -25 5 -41
-8 -8 -18 -9 -36 0 -19 8 -27 7 -39 -5 -15 -14 -11 -17 35 -33 40 -13 52 -22
58 -43 8 -34 -15 -74 -50 -83 -34 -9 -96 7 -104 27 -9 25 10 35 43 22 38 -14
72 -4 55 16 -6 7 -24 16 -40 19 -91 19 -76 127 18 127 22 0 46 -3 55 -6z m206
-14 c0 -17 -7 -20 -45 -20 -38 0 -45 -3 -45 -19 0 -16 8 -20 38 -23 30 -2 38
-7 40 -25 3 -21 -1 -23 -37 -23 -34 0 -41 -3 -41 -20 0 -17 7 -20 45 -20 38 0
45 -3 45 -20 0 -18 -7 -20 -70 -20 l-70 0 0 105 0 105 70 0 c63 0 70 -2 70
-20z m-1167 -30 c19 0 19 -1 2 -20 -9 -10 -15 -25 -12 -32 3 -10 -6 -13 -34
-13 -30 0 -38 3 -34 14 3 8 -2 22 -11 32 -16 18 -16 19 5 19 15 0 25 8 29 22
l5 22 15 -22 c8 -12 24 -22 35 -22z m1311 15 c3 -8 15 -15 27 -15 21 0 21 -1
5 -19 -9 -10 -14 -24 -11 -32 4 -11 -4 -14 -34 -14 -28 0 -37 3 -34 13 3 7 -3
22 -12 32 -17 19 -17 20 4 20 12 0 24 7 27 15 4 8 10 15 14 15 4 0 10 -7 14
-15z"/>
<path d="M1671 1437 c-6 -15 -14 -39 -17 -52 -6 -23 -3 -25 25 -25 35 0 38 12
16 70 l-13 35 -11 -28z"/>
<path d="M1790 1042 c-14 -11 -22 -29 -22 -47 0 -30 31 -65 58 -65 23 0 54 38
54 65 0 27 -31 65 -54 65 -8 0 -24 -8 -36 -18z"/>
</g>
</svg>
